<svg width="160" height="28" viewBox="0 0 160 28" fill="none" xmlns="http://www.w3.org/2000/svg">
<path d="M83.4359 6.91994H91.4637V27.1939H98.8873V6.91994H106.915V0.420654H83.4359V6.91994Z" fill="#F05023"/>
<path d="M148.862 0.420654H137.392V27.1939H144.815V19.5453H148.488C155.142 19.5453 160 16.2156 160 9.90594C159.994 3.89839 155.634 0.420654 148.862 0.420654ZM148.329 13.7332H144.809V6.65333H148.287C150.965 6.65333 152.571 7.87972 152.571 10.1725C152.571 12.3528 150.965 13.7332 148.329 13.7332Z" fill="#F05023"/>
<path d="M121.247 0C118.516 2.51369e-07 115.846 0.810106 113.574 2.32786C111.303 3.84561 109.533 6.00282 108.488 8.52666C107.443 11.0505 107.17 13.8276 107.703 16.5067C108.236 19.1857 109.552 21.6465 111.484 23.5776C113.416 25.5088 115.878 26.8236 118.557 27.3558C121.236 27.888 124.013 27.6137 126.537 26.5675C129.06 25.5214 131.216 23.7503 132.733 21.4785C134.25 19.2066 135.059 16.536 135.058 13.8043C135.056 10.1426 133.6 6.63147 131.011 4.04283C128.421 1.45419 124.909 -3.3695e-07 121.247 0ZM121.247 20.8664C119.85 20.8676 118.485 20.4544 117.322 19.6791C116.16 18.9038 115.254 17.8013 114.719 16.511C114.183 15.2206 114.043 13.8005 114.314 12.4302C114.586 11.0599 115.258 9.80098 116.246 8.81274C117.233 7.82449 118.492 7.1513 119.862 6.87832C121.232 6.60535 122.652 6.74486 123.943 7.2792C125.234 7.81354 126.337 8.7187 127.113 9.88019C127.889 11.0417 128.304 12.4073 128.304 13.8043C128.297 15.6722 127.551 17.4615 126.229 18.7806C124.907 20.0997 123.115 20.8412 121.247 20.8427V20.8664Z" fill="#F05023"/>
<path d="M69.1042 0C66.3725 2.51369e-07 63.7022 0.810106 61.431 2.32786C59.1598 3.84561 57.3897 6.00282 56.3446 8.52666C55.2995 11.0505 55.0264 13.8276 55.5597 16.5067C56.0931 19.1857 57.409 21.6465 59.341 23.5776C61.273 25.5088 63.7343 26.8236 66.4136 27.3558C69.0929 27.888 71.8699 27.6137 74.3932 26.5675C76.9166 25.5214 79.0731 23.7503 80.5899 21.4785C82.1066 19.2066 82.9156 16.536 82.9144 13.8043C82.9128 10.1426 81.4572 6.63147 78.8674 4.04283C76.2777 1.45419 72.7659 -3.3695e-07 69.1042 0ZM69.1042 20.8664C67.7074 20.8664 66.342 20.4522 65.1807 19.6762C64.0193 18.9003 63.1142 17.7973 62.5796 16.5069C62.0451 15.2164 61.9053 13.7965 62.1778 12.4266C62.4503 11.0566 63.1229 9.79829 64.1105 8.81064C65.0982 7.82298 66.3565 7.15038 67.7264 6.87789C69.0963 6.60539 70.5163 6.74525 71.8067 7.27976C73.0972 7.81428 74.2001 8.71945 74.9761 9.88081C75.7521 11.0422 76.1663 12.4076 76.1663 13.8043C76.16 15.6732 75.4132 17.4634 74.0895 18.7827C72.7658 20.102 70.9731 20.8427 69.1042 20.8427V20.8664Z" fill="#F05023"/>
<path d="M13.5259 1.39199e-07C10.4016 0.000490718 7.3697 1.05989 4.92502 3.0053C2.48034 4.95072 0.767196 7.66729 0.0651709 10.7117H7.17469C7.75527 9.5234 8.65785 8.52203 9.77965 7.82159C10.9015 7.12114 12.1974 6.74978 13.5199 6.74978C14.8425 6.74978 16.1384 7.12114 17.2602 7.82159C18.382 8.52203 19.2846 9.5234 19.8652 10.7117H11.5707V16.5889H20.0133C19.4698 17.8592 18.5654 18.942 17.4121 19.703C16.2588 20.464 14.9076 20.8696 13.5259 20.8696C12.1442 20.8696 10.7929 20.464 9.63961 19.703C8.48636 18.942 7.58189 17.8592 7.03842 16.5889H0C0.525631 19.1479 1.76633 21.5054 3.57806 23.3875C5.38979 25.2697 7.69822 26.5994 10.2354 27.2223C12.7725 27.8451 15.4342 27.7355 17.9116 26.9062C20.3889 26.077 22.5803 24.562 24.2311 22.5373C25.882 20.5125 26.9248 18.0611 27.2383 15.4675C27.5518 12.8739 27.1232 10.2446 26.0023 7.88482C24.8814 5.52504 23.1141 3.53161 20.9057 2.13594C18.6973 0.740272 16.1383 -0.000370711 13.5259 1.39199e-07Z" fill="#F05023"/>
<path d="M48.4626 13.4135C50.9865 12.8566 53.0304 10.6112 53.0304 7.28155C53.0304 3.95192 50.5066 0.468262 45.2159 0.468262H30.0667V27.2H45.6958C50.945 27.2 53.5518 23.8349 53.5518 19.9483C53.5518 16.5832 51.3064 13.8578 48.4626 13.4135ZM36.957 6.30399H43.6518C43.9536 6.28841 44.2554 6.3344 44.5389 6.43917C44.8224 6.54393 45.0816 6.70528 45.3007 6.9134C45.5198 7.12151 45.6943 7.37203 45.8136 7.64972C45.9328 7.92742 45.9943 8.22647 45.9943 8.52868C45.9943 8.83088 45.9328 9.12993 45.8136 9.40762C45.6943 9.68532 45.5198 9.93584 45.3007 10.144C45.0816 10.3521 44.8224 10.5134 44.5389 10.6182C44.2554 10.7229 43.9536 10.7689 43.6518 10.7534H36.957V6.30399ZM43.8947 21.4117H36.957V16.5832H43.8947C45.5773 16.5832 46.5371 17.6614 46.5371 18.9886C46.5371 20.4282 45.5595 21.388 43.8947 21.388V21.4117Z" fill="#F05023"/>
</svg>
